<?xml version="1.0" encoding="UTF-8"?>
<svg version="1.1" xmlns="http://www.w3.org/2000/svg" width="2000" height="2000">
<path d="M0 0 C13.9846984 -0.60688314 27.29115963 3.39673329 38.34375 11.97265625 C49.56384174 22.28998199 54.86499492 37.22429237 56.0078125 52.16015625 C58.71663539 117.73491583 32.79967797 181.43135663 4.0078125 239.16015625 C3.53375977 240.11229004 3.05970703 241.06442383 2.57128906 242.04541016 C-18.92933448 284.91316178 -45.93547054 326.53191033 -76.54785156 363.41162109 C-78.59592267 365.89104727 -80.60212441 368.40387671 -82.6171875 370.91015625 C-86.63953 375.8271742 -90.89057822 380.49401415 -95.21875 385.140625 C-97.25269856 387.33009472 -99.21347948 389.57109377 -101.16186523 391.83691406 C-104.9586362 396.18180125 -108.9660614 400.27858161 -113.05078125 404.3515625 C-114.17275658 405.47497292 -114.17275658 405.47497292 -115.31739807 406.62107849 C-116.88851214 408.1928685 -118.46087142 409.76341474 -120.03442383 411.33276367 C-122.42318596 413.71616929 -124.80656196 416.10486693 -127.18945312 418.49414062 C-128.726242 420.03026862 -130.2633411 421.56608634 -131.80078125 423.1015625 C-132.50311386 423.80591934 -133.20544647 424.51027618 -133.92906189 425.23597717 C-137.92043088 429.20877655 -142.01012452 433.00937307 -146.27801514 436.68409729 C-148.49320156 438.59157511 -150.64722636 440.56283626 -152.8046875 442.53515625 C-158.05476183 447.26502504 -163.46830484 451.75446846 -168.9921875 456.16015625 C-169.97832031 456.95292969 -170.96445313 457.74570312 -171.98046875 458.5625 C-178.76483087 463.91057126 -185.75474137 468.73611219 -193.08056641 473.31787109 C-193.7616748 473.74664551 -194.4427832 474.17541992 -195.14453125 474.6171875 C-196.0415979 475.17369995 -196.0415979 475.17369995 -196.95678711 475.74145508 C-202.54345387 479.63543619 -205.4927775 482.00192153 -207.60546875 488.625 C-207.92294823 489.59252197 -207.92294823 489.59252197 -208.24684143 490.57958984 C-208.95217595 492.74655057 -209.62837288 494.92147923 -210.3046875 497.09765625 C-210.8052465 498.65813373 -211.30741286 500.21809636 -211.81103516 501.77758789 C-213.23922349 506.22064855 -214.63970486 510.67208171 -216.0368042 515.125 C-217.41804566 519.51306462 -218.81626504 523.89567852 -220.21311951 528.27879333 C-227.0773242 549.83056104 -233.90857873 571.37285267 -239.9921875 593.16015625 C-239.6621875 593.49015625 -239.3321875 593.82015625 -238.9921875 594.16015625 C-238.49332031 593.54011719 -237.99445312 592.92007813 -237.48046875 592.28125 C-199.77045341 545.76997435 -199.77045341 545.76997435 -175.9921875 529.16015625 C-174.9196875 528.40476562 -173.8471875 527.649375 -172.7421875 526.87109375 C-144.489538 507.56683638 -109.08481389 497.48074023 -74.9921875 503.22265625 C-53.85326073 508.33004795 -36.99972203 520.50554705 -25.3671875 538.97265625 C-1.8540536 578.64186704 -6.09321132 634.95079616 -15.22265625 678.09765625 C-16.1568083 682.59951113 -16.1568083 682.59951113 -15.9921875 687.16015625 C2.98811698 712.00429463 45.61289986 722.58117742 74.45336914 726.64331055 C136.26027372 734.41334907 191.76235978 714.05379633 241.953125 679.3359375 C278.96177432 653.73901551 278.96177432 653.73901551 294.0078125 646.16015625 C294.73403809 645.78890625 295.46026367 645.41765625 296.20849609 645.03515625 C320.75757768 632.58917617 346.01557942 625.97164686 373.58959961 625.97485352 C375.67387696 625.97267862 377.75761342 625.95449623 379.84179688 625.93554688 C405.30221727 625.82709409 405.30221727 625.82709409 412.0078125 632.16015625 C414.71654457 636.60817944 414.79875588 641.09492288 414.0078125 646.16015625 C412.03880323 650.00403889 409.07886751 652.72089438 405.0078125 654.16015625 C402.33445997 654.14252975 399.78769439 654.01518629 397.1328125 653.78515625 C346.44866199 650.31442201 309.47930832 666.15519394 268.2890625 694.53515625 C233.97327908 718.13720203 233.97327908 718.13720203 217.0078125 727.16015625 C216.22937988 727.57668457 215.45094727 727.99321289 214.64892578 728.42236328 C158.95279688 757.73789085 92.32446131 763.19554009 32.27246094 745.34716797 C13.69459481 739.55328699 -3.12123467 731.38028041 -18.9921875 720.16015625 C-20.98396945 718.81393649 -22.98673049 717.48600302 -24.9921875 716.16015625 C-25.29902466 717.10592529 -25.29902466 717.10592529 -25.61206055 718.07080078 C-41.82847608 767.56793552 -65.63534255 815.20787835 -101.49609375 853.48046875 C-103.61130671 855.75126075 -105.65940166 858.05544668 -107.6796875 860.41015625 C-113.60681739 867.22635563 -120.13020223 873.30350442 -126.9921875 879.16015625 C-128.35923828 880.36091797 -128.35923828 880.36091797 -129.75390625 881.5859375 C-143.11034133 893.22852225 -157.50585431 903.54454573 -172.9921875 912.16015625 C-173.76900879 912.59569824 -174.54583008 913.03124023 -175.34619141 913.47998047 C-215.77281971 935.95495168 -264.29614337 949.41054478 -310.0078125 936.56811523 C-335.14835569 929.02409643 -358.05027026 915.55884592 -371.03125 892.03710938 C-378.53804792 877.37444109 -381.0652543 861.34639517 -382.9921875 845.16015625 C-384.34710634 846.65947687 -385.70107428 848.15965679 -387.0546875 849.66015625 C-387.80878906 850.49546875 -388.56289063 851.33078125 -389.33984375 852.19140625 C-390.75579453 853.77627016 -392.1682282 855.36454714 -393.55517578 856.97485352 C-403.95082626 869.03338973 -415.31773232 880.50342849 -427.9921875 890.16015625 C-429.2523979 891.15877494 -430.51141831 892.15889636 -431.76953125 893.16015625 C-478.32899773 929.89827082 -536.9116892 952.28170169 -596.77246094 945.33935547 C-630.04464273 940.85328572 -663.21433189 928.01256248 -684.55078125 900.98046875 C-702.35086413 877.53958585 -710.94794727 847.4686071 -711.23046875 818.2109375 C-711.24522751 816.94775696 -711.24522751 816.94775696 -711.26028442 815.65905762 C-711.60194684 778.73242106 -706.34477222 743.36886371 -694.9921875 708.16015625 C-695.86875 708.14597656 -696.7453125 708.13179687 -697.6484375 708.1171875 C-717.67659356 707.36409627 -736.75227424 701.97229175 -755.65383911 695.63064575 C-787.03135684 685.1355065 -818.74369014 676.22083652 -851.0546875 669.09765625 C-852.29377365 668.82370529 -852.29377365 668.82370529 -853.55789185 668.54421997 C-885.61516674 661.51305847 -921.86155306 655.59484751 -953.9921875 665.16015625 C-955.24 665.52238281 -956.4878125 665.88460937 -957.7734375 666.2578125 C-972.65590991 671.11437153 -985.20794335 678.99040895 -996.9921875 689.16015625 C-998.07886719 690.09214844 -998.07886719 690.09214844 -999.1875 691.04296875 C-1012.38632653 703.35819183 -1022.18107783 719.90484861 -1031.46484375 735.234375 C-1031.86026367 735.87608643 -1032.25568359 736.51779785 -1032.66308594 737.17895508 C-1033.72924524 738.91248997 -1034.77744006 740.65703769 -1035.82421875 742.40234375 C-1038.31272452 745.56790244 -1040.23578759 746.77033688 -1043.9921875 748.16015625 C-1047.87020667 748.57381163 -1051.49539341 748.05511438 -1054.8671875 746.0390625 C-1057.68588781 743.75564422 -1059.64964567 741.86933405 -1060.37109375 738.26953125 C-1061.05847138 729.4359974 -1056.61551213 723.24753391 -1051.9921875 716.16015625 C-1051.47221191 715.3501416 -1050.95223633 714.54012695 -1050.41650391 713.70556641 C-1037.86221213 694.1996946 -1024.58689189 675.37500784 -1005.9921875 661.16015625 C-1005.12980469 660.48210938 -1004.26742187 659.8040625 -1003.37890625 659.10546875 C-968.97663348 632.90877511 -924.77679152 629.599908 -883.20703125 635.0703125 C-839.24431601 641.43916877 -796.22368028 653.81071967 -754.02610779 667.40214539 C-730.70902836 674.90840443 -709.73593104 681.05450843 -684.9921875 680.16015625 C-684.56550781 679.15082031 -684.13882812 678.14148437 -683.69921875 677.1015625 C-669.22771719 643.4287135 -650.49333247 612.47442684 -625.9921875 585.16015625 C-625.53247559 584.64404785 -625.07276367 584.12793945 -624.59912109 583.59619141 C-614.46483667 572.24679945 -604.01957671 561.51816273 -591.9921875 552.16015625 C-591.05415283 551.41548096 -591.05415283 551.41548096 -590.09716797 550.65576172 C-581.03425244 543.46122105 -571.89815034 536.82443929 -561.79101562 531.17333984 C-560.04647445 530.19073318 -558.32351913 529.17010532 -556.6015625 528.1484375 C-524.98347242 509.82151449 -483.04380063 501.86900457 -447.2421875 510.90234375 C-428.82753573 516.12700439 -413.11064013 526.81186864 -403.67480469 543.7097168 C-392.77027397 564.39658061 -394.51430528 586.99766405 -401.1796875 608.66015625 C-415.22905365 648.60524759 -450.50914017 675.16904168 -487.42504883 692.88085938 C-522.40077997 708.92799897 -562.36959148 717.54289983 -600.80859375 718.3359375 C-601.92169922 718.35978516 -603.03480469 718.38363281 -604.18164062 718.40820312 C-606.46529171 718.45183977 -608.74921618 718.48271685 -611.03320312 718.50195312 C-612.13470703 718.52966797 -613.23621094 718.55738281 -614.37109375 718.5859375 C-615.3566626 718.60052002 -616.34223145 718.61510254 -617.35766602 718.63012695 C-620.78964903 719.32059448 -621.89163217 720.38363666 -623.9921875 723.16015625 C-625.17965904 725.99060617 -625.17965904 725.99060617 -625.95703125 729.19921875 C-626.27969971 730.40610352 -626.60236816 731.61298828 -626.93481445 732.85644531 C-627.26765359 734.1657074 -627.59924732 735.47528664 -627.9296875 736.78515625 C-628.28018557 738.14160324 -628.63069021 739.49804853 -628.98120117 740.85449219 C-632.2153648 753.52043961 -634.89584681 766.25506673 -636.9921875 779.16015625 C-637.23775391 780.60865967 -637.23775391 780.60865967 -637.48828125 782.08642578 C-639.98537421 797.35532375 -640.3225366 812.5983041 -640.4296875 828.03515625 C-640.44190338 828.98234528 -640.45411926 829.9295343 -640.46670532 830.90542603 C-640.57769655 841.11827857 -640.18118631 850.9534558 -638.20703125 860.99609375 C-638.05076767 861.79135468 -637.89450409 862.5866156 -637.73350525 863.40597534 C-634.41253085 878.59951123 -625.99320761 892.52104191 -612.9921875 901.16015625 C-589.10387466 915.93643223 -556.28053117 912.97286318 -530.08984375 907.09375 C-513.13100145 903.02913452 -497.34568634 896.33901587 -481.9921875 888.16015625 C-481.34040527 887.81758789 -480.68862305 887.47501953 -480.01708984 887.12207031 C-463.99664392 878.65203411 -449.50329061 868.21083592 -435.9921875 856.16015625 C-435.00992188 855.28875 -434.02765625 854.41734375 -433.015625 853.51953125 C-414.94182242 837.21018961 -399.39618218 819.48242851 -385.1171875 799.78515625 C-384.58206543 799.04861816 -384.04694336 798.31208008 -383.49560547 797.55322266 C-382.72434326 796.48080322 -382.72434326 796.48080322 -381.9375 795.38671875 C-381.48906738 794.76361816 -381.04063477 794.14051758 -380.57861328 793.49853516 C-380.05509277 792.72687012 -379.53157227 791.95520508 -378.9921875 791.16015625 C-378.59943634 790.58645294 -378.20668518 790.01274963 -377.80203247 789.42166138 C-374.63046278 784.60649157 -372.64033007 779.94914791 -370.96875 774.44921875 C-370.70632004 773.62144424 -370.44389008 772.79366974 -370.17350769 771.94081116 C-369.60855394 770.15776079 -369.0481321 768.37326924 -368.49185181 766.5874939 C-366.97460491 761.72638538 -365.41541491 756.87879538 -363.85546875 752.03125 C-363.3748423 750.53598534 -363.3748423 750.53598534 -362.88450623 749.01051331 C-359.71964494 739.21839918 -356.30072336 729.52565245 -352.8046875 719.84765625 C-352.18700996 718.13558006 -351.5693342 716.42350323 -350.95166016 714.71142578 C-349.99094463 712.0489014 -349.03015716 709.38640396 -348.06860352 706.72418213 C-344.2211611 696.05410848 -340.47096175 685.3498966 -336.71566772 674.64712524 C-330.68795238 657.46788842 -324.63273955 640.29939523 -318.4921875 623.16015625 C-309.92774458 599.24846251 -301.50606111 575.28674717 -293.10021973 551.31890869 C-292.05407324 548.33657868 -291.00714227 545.35452537 -289.95996094 542.37255859 C-272.02378453 491.28222341 -254.83428322 439.95944189 -238.203125 388.4296875 C-214.3195617 314.46287322 -186.25625206 241.96983491 -151.9921875 172.16015625 C-151.67723328 171.5169342 -151.36227905 170.87371216 -151.03778076 170.21099854 C-142.37689283 152.5264932 -133.56034567 135.01303033 -123.63427734 117.99560547 C-121.87085743 114.95065172 -120.14250636 111.88744315 -118.41796875 108.8203125 C-105.59150653 86.11124925 -91.80919746 63.68735248 -74.08203125 44.43359375 C-72.13347335 42.31385413 -70.24461417 40.15532156 -68.3671875 37.97265625 C-51.76730176 19.023015 -29.91895714 2.4475151 -4.109375 0.2890625 C-2.7387368 0.20561036 -1.36876041 0.1100376 0 0 Z M-28.9921875 67.16015625 C-85.69851222 136.93161818 -120.01909923 220.37018904 -149.62600708 304.4589386 C-151.38901579 309.46552991 -153.17780184 314.46210243 -154.984375 319.453125 C-159.8949427 333.05107614 -164.50824115 346.70266948 -168.69799805 360.54296875 C-171.62820048 370.17505302 -174.88393718 379.67162234 -178.33837891 389.12817383 C-178.70108887 390.14161865 -179.06379883 391.15506348 -179.4375 392.19921875 C-179.92500732 393.53267334 -179.92500732 393.53267334 -180.42236328 394.89306641 C-181.24386507 397.30169617 -181.24386507 397.30169617 -179.9921875 400.16015625 C-164.05204962 389.45040965 -148.39055765 378.87639226 -134.47607422 365.57666016 C-133.48800975 364.63346337 -132.49482857 363.69559735 -131.49658203 362.76318359 C-123.51702945 355.29777075 -116.95897705 347.19937341 -110.578125 338.34472656 C-108.94627449 336.09691278 -107.28608004 333.87277098 -105.6171875 331.65234375 C-87.63328213 307.66454578 -71.71433338 282.26235168 -56.9921875 256.16015625 C-56.54617188 255.37253906 -56.10015625 254.58492187 -55.640625 253.7734375 C-35.49477185 218.02893806 -18.37740111 180.84385157 -3.4296875 142.66015625 C-2.9315152 141.38998154 -2.9315152 141.38998154 -2.42327881 140.09414673 C6.33239684 118.05373224 6.33239684 118.05373224 12.3203125 95.16015625 C12.47854492 94.36601318 12.63677734 93.57187012 12.79980469 92.75366211 C13.87012538 87.2419631 14.78876551 81.77918782 15.0078125 76.16015625 C15.04777344 75.23460937 15.08773438 74.3090625 15.12890625 73.35546875 C15.50626076 58.22652158 15.50626076 58.22652158 9.0078125 45.16015625 C-4.59849783 36.0892827 -21.24496363 57.74750229 -28.9921875 67.16015625 Z M-195.63671875 589.26953125 C-196.75633307 590.56543537 -197.87488957 591.86225446 -198.9921875 593.16015625 C-199.94197015 594.24283552 -200.89245157 595.32490234 -201.84375 596.40625 C-209.06737965 604.6886927 -215.81062635 613.27300376 -222.40722656 622.06054688 C-223.90778643 624.04834953 -225.42668068 626.0203203 -226.953125 627.98828125 C-247.05040978 654.05715744 -263.27277261 682.79595517 -277.9921875 712.16015625 C-278.48992676 713.15160645 -278.98766602 714.14305664 -279.50048828 715.16455078 C-300.97720646 758.24238381 -336.20743012 830.98941375 -322.3671875 880.53515625 C-317.58822701 893.10081459 -310.72638025 901.15488855 -298.6796875 907.1171875 C-280.43670781 914.19694851 -259.37626868 910.45290242 -241.8671875 902.97265625 C-211.68006327 889.3157838 -187.68154849 865.32974527 -167.9921875 839.16015625 C-167.58677734 838.62229492 -167.18136719 838.08443359 -166.76367188 837.53027344 C-153.71009385 820.0649706 -142.50495514 801.23539188 -131.9921875 782.16015625 C-131.53779297 781.34321289 -131.08339844 780.52626953 -130.61523438 779.68457031 C-102.07936131 728.09417535 -81.06554492 666.99890581 -72.39306641 608.72705078 C-72.01474613 606.30460289 -71.56418781 603.90672674 -71.09765625 601.5 C-67.98261963 583.50480711 -72.52310513 560.91089273 -82.2421875 545.34765625 C-85.86174473 540.60749307 -91.11510392 537.24162702 -96.9921875 536.16015625 C-137.10312023 532.43600572 -170.99441957 561.14575192 -195.63671875 589.26953125 Z M-526.9921875 563.16015625 C-528.11315276 564.05484851 -529.23423778 564.94939075 -530.35546875 565.84375 C-550.40507075 582.08439137 -566.23631183 601.45331408 -579.9921875 623.16015625 C-580.35731445 623.7334668 -580.72244141 624.30677734 -581.09863281 624.89746094 C-590.59161667 639.92447126 -598.73208511 655.85214364 -606.0546875 672.03515625 C-606.59125977 673.21887817 -606.59125977 673.21887817 -607.13867188 674.42651367 C-609.41960141 679.57563519 -611.30424302 684.78833858 -612.9921875 690.16015625 C-561.03736455 688.67573274 -511.27066792 673.42907761 -473.53515625 636.7734375 C-455.58654747 617.72527431 -440.8993483 593.04534792 -440.7421875 566.34765625 C-440.7215625 565.48333984 -440.7009375 564.61902344 -440.6796875 563.72851562 C-440.63748056 556.7379917 -442.00432083 551.57928693 -445.5546875 545.47265625 C-452.73103937 538.66432243 -459.96578533 537.47303304 -469.54052734 537.64135742 C-492.56295966 538.63931012 -509.53379893 548.9077865 -526.9921875 563.16015625 Z " fill="#E8B34B" transform="translate(1322.9921875,456.83984375)"/>
<path d="M0 0 C2.62499915 0.00502563 5.24999922 0.00958665 7.875 0.01367188 C14.25004233 0.02373349 20.62495281 0.04332372 27 0.0625 C27 16.5625 27 33.0625 27 50.0625 C9.375 50.4375 9.375 50.4375 3.90771484 50.54052734 C-15.18346463 50.96417163 -35.36452024 52.29622209 -50 66.0625 C-69.17016881 87.43575854 -69.17465658 119.98224777 -69.1015625 147.078125 C-69.09961884 148.27950607 -69.09767517 149.48088715 -69.09567261 150.71867371 C-69.03948239 164.27937347 -68.60255387 177.82371807 -68.125 191.375 C-68.05730077 193.370479 -67.98960503 195.36595815 -67.92226315 197.36144924 C-67.34971649 214.28647544 -66.68128134 231.20663849 -65.9375 248.125 C-59.63648277 391.83108557 -59.63648277 391.83108557 -87.625 424.875 C-96.79034418 434.43455253 -109.02799146 441.27808356 -121.625 445.1875 C-122.800625 445.620625 -122.800625 445.620625 -124 446.0625 C-124.33 447.0525 -124.66 448.0425 -125 449.0625 C-124.44054687 449.19785156 -123.88109375 449.33320312 -123.3046875 449.47265625 C-104.57309411 454.50187827 -89.05665401 465.54811262 -79.0625 482.3125 C-49.88798192 537.64348256 -64.56496499 617.37527976 -67.18981934 676.95230103 C-68.01234239 695.65111169 -68.66226152 714.34828061 -69 733.0625 C-69.02336426 734.34125 -69.04672852 735.62 -69.07080078 736.9375 C-70.68975982 783.78057752 -70.68975982 783.78057752 -52.35546875 825.35546875 C-51 827.0625 -51 827.0625 -51 829.0625 C-50.12794922 829.47048828 -50.12794922 829.47048828 -49.23828125 829.88671875 C-47.02548999 831.04910997 -45.18665174 832.38056507 -43.1875 833.875 C-32.40309691 841.18403067 -19.51438089 843.07073372 -6.7890625 843.59765625 C-5.50068481 843.65512024 -5.50068481 843.65512024 -4.1862793 843.71374512 C-0.99936033 843.85482022 2.18783745 843.98953929 5.375 844.125 C12.51125 844.434375 19.6475 844.74375 27 845.0625 C27 861.2325 27 877.4025 27 894.0625 C10.87180211 894.18282643 10.87180211 894.18282643 3.85351562 894.20898438 C-0.88544124 894.22673247 -5.62421998 894.24743185 -10.36303711 894.28881836 C-41.37280031 894.5523792 -75.53986866 894.5147708 -101 874.0625 C-101.83144531 873.39476562 -102.66289062 872.72703125 -103.51953125 872.0390625 C-129.40989075 850.00640634 -136.18514164 815.62460479 -138.78858948 783.29956055 C-139.13249969 778.03370074 -139.20201115 772.77580189 -139.23828125 767.5 C-139.24793915 766.30387589 -139.25759705 765.10775177 -139.26754761 763.87538147 C-139.29254145 759.93774751 -139.30554916 756.00019686 -139.3125 752.0625 C-139.31488867 751.04182497 -139.31488867 751.04182497 -139.31732559 750.00053024 C-139.38144623 717.54235567 -137.46822409 685.27519029 -135.25964355 652.90509033 C-134.64433951 643.79890865 -134.07384242 634.68977902 -133.50201416 625.58078003 C-133.37667597 623.58459276 -133.25082981 621.58843731 -133.12445068 619.59231567 C-132.14416672 604.08886557 -131.29931319 588.59685473 -131 573.0625 C-130.97808594 572.00224609 -130.95617187 570.94199219 -130.93359375 569.84960938 C-130.44583837 542.87673699 -132.65351886 517.75347398 -151.8515625 497.12109375 C-169.74240727 479.97841158 -194.42857385 476.87568663 -218 475.0625 C-218 456.9125 -218 438.7625 -218 420.0625 C-205.625 418.5775 -205.625 418.5775 -193 417.0625 C-179.16686105 413.94224309 -167.25516688 409.80780388 -156 401.0625 C-155.04480469 400.35480469 -155.04480469 400.35480469 -154.0703125 399.6328125 C-140.80022634 389.19367805 -134.3510685 371.44640042 -131.75 355.3125 C-126.99314026 313.05289783 -133.38925419 268.32315631 -136.23510742 226.04394531 C-137.93274324 200.80594484 -139.20469173 175.70301668 -139.24023438 150.39672852 C-139.24678544 146.39778772 -139.28110014 142.39921228 -139.3125 138.40039062 C-139.46487012 101.33454105 -136.6644967 59.23100547 -111 30.0625 C-110.32195312 29.2890625 -109.64390625 28.515625 -108.9453125 27.71875 C-89.35606308 6.76614622 -59.08838649 1.3951816 -31.71240234 0.15078735 C-21.14930155 -0.19303635 -10.56698714 -0.03535671 0 0 Z " fill="#231F20" transform="translate(252,544.9375)"/>
<path d="M0 0 C7.39355744 -0.04646789 14.78658741 -0.08612022 22.18017578 -0.10986328 C24.68377418 -0.11978423 27.18736145 -0.1333252 29.69091797 -0.15087891 C67.04395126 -0.40579724 107.47260174 0.21713548 136 28 C159.96530683 53.83319104 165.03963359 92.4907189 165.23828125 126.28515625 C165.24308376 126.96547157 165.24788628 127.6457869 165.25283432 128.34671783 C165.28914292 133.58530356 165.30444273 138.82380225 165.3125 144.0625 C165.31409245 144.8413644 165.31568489 145.62022881 165.31732559 146.42269516 C165.35831294 170.10923985 164.73232286 193.67624288 163.1875 217.3125 C163.14289265 217.9973988 163.09828529 218.68229759 163.0523262 219.3879509 C162.40639158 229.26136739 161.70814486 239.13085791 161 249 C159.09879581 275.69898919 157.70427644 302.28832818 157.5625 329.0625 C157.55037476 330.24668518 157.53824951 331.43087036 157.52575684 332.65093994 C157.38093899 349.14719241 157.66177171 365.5423099 165.6875 380.4375 C166.0270874 381.09089355 166.3666748 381.74428711 166.71655273 382.41748047 C169.9661426 388.40773286 174.06284783 393.30565859 179 398 C179.86044922 398.85464844 179.86044922 398.85464844 180.73828125 399.7265625 C197.68436923 415.49977089 222.25477894 417.71102936 244 420 C244 438.15 244 456.3 244 475 C237.07 475.66 230.14 476.32 223 477 C207.99757101 480.0004858 195.53350681 484.17274481 183 493 C182.36449219 493.43699219 181.72898437 493.87398437 181.07421875 494.32421875 C167.83472714 504.45927785 160.65418314 522.64525699 158.27478027 538.5947876 C157.23826724 547.66761507 157.51574868 556.88388576 157.5625 566 C157.56454437 567.20418579 157.56658875 568.40837158 157.56869507 569.64904785 C157.65387006 600.98423587 159.98642608 632.17878062 162.24725342 663.41625977 C164.25365216 691.23570019 165.30429128 718.95686418 165.36836243 746.84414673 C165.37488097 749.1454785 165.38631836 751.44674056 165.39880371 753.74804688 C165.58003389 792.17375388 163.5978032 834.64601849 137 865 C136.40703125 865.68835937 135.8140625 866.37671875 135.203125 867.0859375 C117.54456064 886.17831692 89.12889908 893.06459035 64.03775024 894.17541504 C59.910285 894.22892607 55.7876187 894.22616022 51.66015625 894.1953125 C50.15701997 894.19156895 48.6538812 894.18872835 47.15074158 894.18673706 C43.24969396 894.179206 39.34880219 894.15965206 35.44781494 894.1373291 C30.73770619 894.11298372 26.02754448 894.10403941 21.31739044 894.09242249 C14.2114862 894.07321823 7.10592193 894.03482347 0 894 C0 877.83 0 861.66 0 845 C20.4375 844.25 20.4375 844.25 26.77124023 844.04394531 C42.38354526 843.44482362 57.72440923 841.99387293 71 833 C71.97839844 832.34064453 71.97839844 832.34064453 72.9765625 831.66796875 C87.34707083 820.68434234 91.09739134 800.89111422 93.59655762 784.07543945 C95.21907419 771.70700297 95.19727579 759.2702983 95.18359375 746.8203125 C95.1835327 745.85464481 95.18347164 744.88897713 95.18340874 743.89404678 C95.16216103 721.74600606 94.30035219 699.64422475 93.34677124 677.51998901 C92.85736333 666.14856197 92.40850973 654.77548223 91.9609375 643.40234375 C91.91697279 642.28935221 91.87300808 641.17636066 91.82771111 640.02964211 C91.08590693 621.16783415 90.50123741 602.31139137 90.1875 583.4375 C90.15585251 581.73844513 90.15585251 581.73844513 90.12356567 580.00506592 C88.70357364 500.67543343 88.70357364 500.67543343 113 472 C113.721875 471.01 114.44375 470.02 115.1875 469 C124.06204439 458.59926008 138.00147136 452.27838997 151 449 C151 447.68 151 446.36 151 445 C150.00871094 444.91105469 149.01742188 444.82210938 147.99609375 444.73046875 C143.57862832 444.09400717 139.99340167 442.35587205 136.0625 440.3125 C135.35955811 439.95381836 134.65661621 439.59513672 133.93237305 439.22558594 C128.89144088 436.5983824 124.34045914 433.68281382 120 430 C119.19691406 429.39285156 118.39382813 428.78570313 117.56640625 428.16015625 C98.99084629 412.52501979 93.36698971 384.73288348 91.21655273 361.78979492 C87.81641079 317.98661345 90.96374692 273.60122825 92.89550781 229.78881836 C94.6080548 191.23144531 94.6080548 191.23144531 95.18530273 152.64379883 C95.18752959 149.90105512 95.20597476 147.1586915 95.22460938 144.41601562 C95.25460551 134.96561572 94.94335694 125.61478088 94.1015625 116.19921875 C93.98260872 114.86708595 93.98260872 114.86708595 93.86125183 113.50804138 C92.13309597 95.93826598 87.61005586 76.86251156 74.375 64.3125 C60.91292178 53.30271686 44.06633464 51.06256574 27.24609375 50.68359375 C26.54746216 50.66494263 25.84883057 50.6462915 25.12902832 50.6270752 C22.5652913 50.55972952 20.00138439 50.4989799 17.4375 50.4375 C8.8059375 50.2209375 8.8059375 50.2209375 0 50 C0 33.5 0 17 0 0 Z " fill="#231F20" transform="translate(1722,545)"/>
</svg>
