<?xml version="1.0" encoding="UTF-8"?>
<svg version="1.1" xmlns="http://www.w3.org/2000/svg" width="2000" height="2000">
<path d="M0 0 C10.65285328 9.53042621 14.59315752 23.57666229 15.7890625 37.32421875 C19.3007358 104.38649691 -14.45695638 174.38029769 -48.2109375 230.32421875 C-48.74299805 231.21173828 -49.27505859 232.09925781 -49.82324219 233.01367188 C-64.93692187 258.1560549 -81.56731919 282.65168292 -100.2109375 305.32421875 C-100.901875 306.18789063 -101.5928125 307.0515625 -102.3046875 307.94140625 C-107.13588215 313.94637706 -112.18750646 319.66843318 -117.4375 325.3046875 C-119.4104931 327.42599939 -121.29902966 329.60197996 -123.17578125 331.80859375 C-128.25878212 337.6403555 -133.78574077 343.04794614 -139.26245117 348.50610352 C-141.14422024 350.3825135 -143.02058488 352.26420844 -144.89648438 354.14648438 C-150.83305046 360.08634492 -156.7939899 365.89890043 -163.2109375 371.32421875 C-164.81862123 372.77867392 -166.42333465 374.2364277 -168.0234375 375.69921875 C-173.27347542 380.42984652 -178.70140857 384.90056259 -184.2109375 389.32421875 C-185.25815674 390.18708239 -186.30502072 391.05037732 -187.3515625 391.9140625 C-194.78207152 397.97155459 -202.51193042 403.22843826 -210.7265625 408.17700195 C-211.49613281 408.64581787 -212.26570313 409.11463379 -213.05859375 409.59765625 C-213.73929932 410.00419434 -214.42000488 410.41073242 -215.12133789 410.82958984 C-220.32131667 414.54898114 -222.84949599 417.99309018 -224.796875 424.0703125 C-225.01550201 424.73756348 -225.23412903 425.40481445 -225.4593811 426.09228516 C-226.18259911 428.31106163 -226.8841343 430.53608521 -227.5859375 432.76171875 C-228.09491658 434.3371351 -228.60536922 435.91207602 -229.1171875 437.48657227 C-230.2261126 440.90529203 -231.32628743 444.32667116 -232.42089844 447.75 C-234.31665199 453.66886139 -236.25015964 459.57511097 -238.1875 465.48046875 C-243.73102468 482.39199859 -243.73102468 482.39199859 -249.2109375 499.32421875 C-249.4382959 500.03088684 -249.6656543 500.73755493 -249.89990234 501.46563721 C-250.48832489 503.30344001 -251.06873026 505.14380451 -251.6484375 506.984375 C-252.11056641 508.45015991 -252.11056641 508.45015991 -252.58203125 509.94555664 C-253.33874332 512.39754225 -253.33874332 512.39754225 -253.2109375 515.32421875 C-246.91806137 508.36236555 -246.91806137 508.36236555 -240.7109375 501.32421875 C-237.38083344 497.50416835 -234.00128275 493.73085041 -230.6015625 489.97265625 C-228.95800219 488.15184924 -227.32303498 486.32326032 -225.6953125 484.48828125 C-220.80654346 479.01465947 -215.84863734 474.01208873 -210.2109375 469.32421875 C-209.375625 468.57785156 -208.5403125 467.83148437 -207.6796875 467.0625 C-182.56776693 445.0895695 -148.84038541 431.45591609 -115.2109375 433.32421875 C-95.90591479 434.7159762 -79.21429583 442.30083439 -65.78515625 456.3046875 C-56.76634957 466.88365193 -51.26949251 479.23227772 -48.0234375 492.63671875 C-47.79092285 493.59433105 -47.79092285 493.59433105 -47.55371094 494.57128906 C-44.41347764 508.52104004 -43.80995974 522.34321577 -43.8359375 536.57421875 C-43.83515198 537.49164856 -43.83436646 538.40907837 -43.83355713 539.35430908 C-43.85059637 556.03499756 -45.15297151 572.23233301 -48.95922852 588.52783203 C-50.47667138 594.67400316 -50.47667138 594.67400316 -48.37890625 600.33203125 C-47.39535156 601.03070312 -46.41179688 601.729375 -45.3984375 602.44921875 C-44.85872314 602.84334961 -44.31900879 603.23748047 -43.76293945 603.64355469 C-41.94720179 604.93304698 -40.09190213 606.13212443 -38.2109375 607.32421875 C-37.54964844 607.75508789 -36.88835938 608.18595703 -36.20703125 608.62988281 C-26.67857771 614.77275206 -16.95561458 619.65932769 -6.2109375 623.32421875 C-5.12401611 623.70271973 -5.12401611 623.70271973 -4.01513672 624.08886719 C27.41068102 634.84557823 63.1892416 637.29580574 95.7890625 630.32421875 C97.01520264 630.06680908 97.01520264 630.06680908 98.26611328 629.80419922 C135.64330804 621.72205798 166.22454414 603.33602782 197.50952148 582.12866211 C210.5657059 573.30461347 223.87894893 564.79326324 238.1640625 558.07421875 C239.47358887 557.45728149 239.47358887 557.45728149 240.80957031 556.82788086 C268.17787016 544.26720409 305.15692892 537.52047674 334.7890625 545.32421875 C338.58681394 547.91525687 340.75434683 549.77146979 341.7890625 554.32421875 C341.95058046 558.99873858 341.38524196 561.60574606 338.3515625 565.26171875 C333.85118867 568.88397085 330.24083739 568.39213991 324.671875 568.28125 C322.76433402 568.25880163 320.85678106 568.23735306 318.94921875 568.21679688 C315.96141392 568.18021843 312.97423685 568.1379383 309.98681641 568.07739258 C269.52364947 567.29650051 238.45102948 584.02882759 205.66015625 606.11328125 C191.33561402 615.75769353 177.07595435 625.23974102 161.7890625 633.32421875 C160.77537598 633.87094238 160.77537598 633.87094238 159.74121094 634.42871094 C110.1972427 660.81760084 47.89348566 665.35302087 -5.5703125 649.5 C-17.34665676 645.81546721 -28.44978726 641.3593318 -39.2109375 635.32421875 C-40.35433594 634.69128906 -41.49773438 634.05835938 -42.67578125 633.40625 C-46.62782546 631.15957275 -50.38659955 628.99510851 -53.91796875 626.12109375 C-55.98778142 624.11861398 -55.98778142 624.11861398 -58.2109375 624.32421875 C-58.45102539 625.00597168 -58.69111328 625.68772461 -58.93847656 626.39013672 C-74.01244666 668.8822829 -94.29998689 709.0826806 -125.2109375 742.32421875 C-126.3401587 743.63308877 -127.4652969 744.94549465 -128.5859375 746.26171875 C-135.57362697 754.24764957 -143.10535977 761.48048157 -151.41015625 768.08203125 C-154.31967276 770.41126762 -157.13452798 772.83259571 -159.9609375 775.26171875 C-193.6620627 803.26687912 -238.58845609 822.53726776 -282.6484375 822.57421875 C-283.72748856 822.57523087 -283.72748856 822.57523087 -284.82833862 822.57626343 C-295.24621755 822.56070893 -305.11318578 822.22600604 -315.2109375 819.32421875 C-317.04978516 818.81375 -317.04978516 818.81375 -318.92578125 818.29296875 C-341.13123857 811.50987756 -361.95326185 799.32199122 -373.2109375 778.32421875 C-379.82271091 765.08507813 -382.50239929 752.03249468 -383.2109375 737.32421875 C-384.0359375 738.22140625 -384.8609375 739.11859375 -385.7109375 740.04296875 C-410.43872395 766.81236596 -410.43872395 766.81236596 -424.2109375 777.32421875 C-425.38704497 778.25219087 -426.56280302 779.18060595 -427.73828125 780.109375 C-470.40061107 813.40110263 -524.67006206 832.33085714 -578.93652344 826.37890625 C-604.10576565 823.19266433 -629.25181402 814.64379539 -648.2109375 797.32421875 C-648.98953125 796.62683594 -649.768125 795.92945313 -650.5703125 795.2109375 C-664.45118531 782.11983849 -673.8914614 763.8169758 -678.2109375 745.32421875 C-678.39140625 744.56512207 -678.571875 743.80602539 -678.7578125 743.02392578 C-688.19746314 701.558028 -680.82149144 657.30651768 -668.2109375 617.32421875 C-669.18812744 617.19744751 -669.18812744 617.19744751 -670.18505859 617.06811523 C-691.94936472 614.16962444 -712.44149991 608.92989709 -733.2734375 602.07421875 C-827.01339205 570.53767521 -827.01339205 570.53767521 -921.20336914 585.17480469 C-927.71848107 588.60613513 -933.64473194 592.49532773 -939.2109375 597.32421875 C-940.37109375 598.26974609 -940.37109375 598.26974609 -941.5546875 599.234375 C-953.16581375 609.06341384 -961.60352484 621.50147619 -969.67114258 634.27075195 C-978.43452982 648.13994696 -978.43452982 648.13994696 -983.2109375 651.32421875 C-987.86630971 652.08681305 -991.40843024 651.71817686 -995.6484375 649.63671875 C-998.43132074 647.12533631 -999.46410636 645.9753932 -1000.2109375 642.32421875 C-999.87741098 635.99388538 -998.39692156 632.10675323 -994.8984375 626.88671875 C-994.4547583 626.20424072 -994.0110791 625.5217627 -993.55395508 624.81860352 C-992.1252811 622.64047749 -990.67141422 620.4811265 -989.2109375 618.32421875 C-988.7365625 617.61491211 -988.2621875 616.90560547 -987.7734375 616.17480469 C-965.30380375 582.7298539 -937.34222473 559.76425456 -897.40405273 551.7097168 C-891.57911673 550.68583013 -885.89163785 550.14759608 -879.98046875 550.0859375 C-879.2013765 550.07600769 -878.42228424 550.06607788 -877.61958313 550.05584717 C-828.53344623 549.56113568 -780.58464916 561.71077719 -733.87109375 576.0859375 C-732.79165497 576.41811279 -731.71221619 576.75028809 -730.60006714 577.0925293 C-725.25235929 578.74260596 -719.90992007 580.40769312 -714.57421875 582.09619141 C-699.06975801 586.97022073 -683.39964124 591.78202371 -667.0234375 592.07421875 C-666.15525391 592.10386719 -665.28707031 592.13351562 -664.39257812 592.1640625 C-662.33247138 592.23235333 -660.27171823 592.28078818 -658.2109375 592.32421875 C-658.05093262 591.79344727 -657.89092773 591.26267578 -657.72607422 590.71582031 C-643.67959208 546.2111587 -606.63084835 501.3572695 -569.2109375 474.32421875 C-568.14531301 473.50888678 -567.0815241 472.69115044 -566.01953125 471.87109375 C-532.91533782 446.73167044 -491.12180791 434.30887344 -449.78955078 439.90136719 C-434.23356233 442.45230186 -421.36157319 449.21291511 -410.2109375 460.32421875 C-409.63472656 460.87722656 -409.05851563 461.43023438 -408.46484375 462 C-397.6717852 473.29766908 -395.16073559 489.35329293 -395.2109375 504.32421875 C-396.83247156 532.16055338 -412.46966187 555.26198668 -432.35351562 573.67822266 C-437.63543782 578.35891659 -443.33717454 582.4253753 -449.2109375 586.32421875 C-450.0774292 586.90115479 -450.0774292 586.90115479 -450.96142578 587.48974609 C-476.63215308 604.29544764 -506.16424637 614.73871555 -536.2109375 620.32421875 C-537.18272949 620.50823242 -538.15452148 620.69224609 -539.15576172 620.88183594 C-560.030421 624.71002597 -581.04870094 625.5176636 -602.2109375 626.32421875 C-622.59795238 698.65764446 -622.59795238 698.65764446 -608.99609375 770.4375 C-600.78946956 783.70816801 -589.17191892 790.75202036 -574.2109375 794.32421875 C-556.56430825 797.75267081 -534.56366846 796.80845129 -517.2109375 792.32421875 C-516.42541504 792.12554199 -515.63989258 791.92686523 -514.83056641 791.72216797 C-502.39063369 788.48676758 -490.74609036 783.96274441 -479.2109375 778.32421875 C-478.43363281 777.9478125 -477.65632812 777.57140625 -476.85546875 777.18359375 C-442.80597689 760.51989464 -411.59688832 733.12486479 -389.65185547 702.31640625 C-388.18232204 700.28465553 -386.66159438 698.3025765 -385.12109375 696.32421875 C-384.13003527 695.03268486 -383.13914258 693.74102374 -382.1484375 692.44921875 C-381.70677246 691.89121582 -381.26510742 691.33321289 -380.81005859 690.75830078 C-377.02363602 685.718057 -375.1679898 680.27393796 -373.2109375 674.32421875 C-372.59818968 672.51935006 -371.98489779 670.71466601 -371.37109375 668.91015625 C-371.04214111 667.93393311 -370.71318848 666.95770996 -370.37426758 665.9519043 C-365.04307816 650.19953423 -359.29623458 634.60667083 -353.5234375 619.01171875 C-345.78839721 598.11294118 -338.16513813 577.17751677 -330.6484375 556.19921875 C-330.16301039 554.84459223 -329.67757744 553.4899678 -329.19213867 552.13534546 C-328.83162729 551.12933241 -328.83162729 551.12933241 -328.46383286 550.10299587 C-327.257375 546.73654789 -326.05066469 543.37019048 -324.84375 540.00390625 C-324.60661034 539.34241137 -324.36947067 538.68091648 -324.12514496 537.9993763 C-319.54385963 525.22299875 -314.90945078 512.46624738 -310.25952148 499.71469116 C-290.49372694 445.49881104 -271.09548419 391.17725197 -253.38476562 336.24954224 C-227.45260069 255.88912797 -195.34170461 174.93984867 -152.67675781 101.84130859 C-151.24416397 99.38127487 -149.83028227 96.91144573 -148.421875 94.4375 C-96.93442044 4.23524496 -96.93442044 4.23524496 -52.2734375 -8.61328125 C-34.03295407 -12.79786274 -15.30803187 -11.60273087 0 0 Z M-63.5012207 50.50854492 C-124.61483596 124.41040339 -158.44896366 217.18520521 -192.35644531 318.69482422 C-192.70036819 319.74089844 -192.70036819 319.74089844 -193.05123901 320.80810547 C-193.49093928 322.14633235 -193.92971571 323.48486321 -194.36746216 324.82373047 C-195.9735602 329.70299981 -197.74280294 334.50651265 -199.62036133 339.28735352 C-200.47279055 341.36601152 -200.47279055 341.36601152 -199.2109375 343.32421875 C-179.65695538 330.58387793 -179.65695538 330.58387793 -161.2109375 316.32421875 C-160.30472656 315.57011719 -159.39851563 314.81601562 -158.46484375 314.0390625 C-152.26904698 308.69200501 -147.25012503 302.75041393 -142.2109375 296.32421875 C-141.28871027 295.1882722 -140.36412353 294.05423821 -139.4375 292.921875 C-89.78325841 232.04260539 -22.41931004 130.79029364 -22.2109375 41.32421875 C-23.11657388 36.07921397 -24.42944955 32.2238782 -28.2109375 28.32421875 C-41.25783155 21.80077173 -56.09502342 41.75398659 -63.5012207 50.50854492 Z M-226.14453125 525.66796875 C-227.1675442 526.88598224 -228.18966261 528.10474757 -229.2109375 529.32421875 C-230.00201904 530.26587891 -230.00201904 530.26587891 -230.80908203 531.2265625 C-239.17246485 541.2213957 -246.86043963 551.56588021 -254.2109375 562.32421875 C-254.63971191 562.94619141 -255.06848633 563.56816406 -255.51025391 564.20898438 C-278.02897124 596.928338 -295.85503712 632.34788492 -310.2109375 669.32421875 C-310.61586426 670.36304199 -311.02079102 671.40186523 -311.43798828 672.47216797 C-330.59105904 721.50788792 -330.59105904 721.50788792 -327.53515625 772.55859375 C-322.47801218 783.12041675 -314.35982033 789.44492112 -303.60546875 793.5625 C-284.54495533 799.62579546 -263.47475962 793.15857871 -246.41015625 784.390625 C-227.42599284 774.33910438 -211.04887735 759.66422896 -197.2109375 743.32421875 C-196.43206177 742.41265015 -196.43206177 742.41265015 -195.63745117 741.48266602 C-187.58875634 731.98969542 -180.41159062 722.10889394 -173.69482422 711.63623047 C-172.21322692 709.32778585 -170.71479883 707.03092191 -169.21484375 704.734375 C-137.52346708 655.81953601 -88.73994417 562.01969214 -100.25 501.71875 C-100.75889239 499.52007389 -101.28766595 497.32590728 -101.8359375 495.13671875 C-102.08472656 494.03908203 -102.33351563 492.94144531 -102.58984375 491.81054688 C-104.98588557 481.80319807 -108.09502304 472.04097867 -117.2109375 466.32421875 C-156.62612936 446.61662282 -204.3804731 499.9185441 -226.14453125 525.66796875 Z M-536.2109375 507.32421875 C-536.88253906 507.94941406 -537.55414062 508.57460937 -538.24609375 509.21875 C-561.90818918 531.60427766 -581.32699537 566.85622542 -592.2109375 597.32421875 C-592.2109375 598.31421875 -592.2109375 599.30421875 -592.2109375 600.32421875 C-548.14519495 598.17626864 -504.41781137 587.92066035 -471.2109375 557.32421875 C-470.26605469 556.46183594 -469.32117188 555.59945312 -468.34765625 554.7109375 C-451.62568086 538.74582663 -437.53065336 516.77981463 -436.0078125 493.17578125 C-435.88809627 484.9353138 -436.41871259 478.76312912 -441.5234375 472.01171875 C-446.39534202 467.13981423 -451.80465494 465.19457952 -458.5859375 465.13671875 C-491.03239095 465.6124732 -514.3898524 485.46776723 -536.2109375 507.32421875 Z " fill="#E8B34B" transform="translate(1329.2109375,591.67578125)"/>
<path d="M0 0 C19.7602734 -0.08021762 19.7602734 -0.08021762 28.39453125 -0.09765625 C34.21244095 -0.10946379 40.03028588 -0.12319263 45.84814453 -0.15087891 C155.10164691 -0.65637021 155.10164691 -0.65637021 192.31640625 35.14453125 C196.67980382 39.78738951 200.43125041 44.72879302 204 50 C204.82951172 51.21429687 204.82951172 51.21429687 205.67578125 52.453125 C225.84401318 83.93015881 224.44852359 124.70581435 224.37438464 160.61852527 C224.36877583 165.41637188 224.38346003 170.21415297 224.39674377 175.01197815 C224.4325351 189.21250316 224.43917142 203.41302022 224.43664551 217.61358643 C224.43492578 228.69797071 224.44225851 239.7821904 224.47662407 250.86652905 C224.49053175 255.61650163 224.49668551 260.36619758 224.48357964 265.11617851 C224.40166708 296.22721965 224.67937976 327.52686623 247.55078125 351.6796875 C256.54903123 360.20434538 267.26302608 366.9763948 279.95214844 367.20532227 C281.44367432 367.23559509 281.44367432 367.23559509 282.96533203 367.26647949 C284.00286621 367.28295532 285.04040039 367.29943115 286.109375 367.31640625 C287.54821045 367.34438293 287.54821045 367.34438293 289.01611328 367.3729248 C292.59398321 367.44114331 296.17200241 367.50134253 299.75 367.5625 C307.7525 367.706875 315.755 367.85125 324 368 C324 387.8 324 407.6 324 428 C303.875 428.3125 303.875 428.3125 297.61669922 428.38793945 C278.8377846 428.70533926 262.35050935 431.07732034 248.23828125 444.671875 C232.82118853 460.7078039 224.90695575 483.21385844 224.86196899 505.34846497 C224.85914771 506.05480644 224.85632643 506.76114792 224.85341966 507.48889369 C224.84513559 509.8387172 224.84374066 512.18849321 224.84228516 514.53833008 C224.83761173 516.23114655 224.8324673 517.92396178 224.82688904 519.61677551 C224.815634 523.25781447 224.80718671 526.89884537 224.80076981 530.53989601 C224.79003007 536.32347724 224.76976356 542.10700117 224.74765015 547.89054871 C224.6859455 564.33626636 224.63195739 580.78198175 224.59863281 597.2277832 C224.5801394 606.31477445 224.55101419 615.40167041 224.5106281 624.48859137 C224.48978447 629.28258232 224.47413381 634.07645433 224.47182083 638.87049294 C224.4178338 725.31285789 224.4178338 725.31285789 196 757 C195.19949219 757.89460938 194.39898438 758.78921875 193.57421875 759.7109375 C169.19773395 785.49584143 131.87027536 794.88778554 97.39999485 796.09073544 C94.78998358 796.12131884 92.1816999 796.12400445 89.5715332 796.11352539 C88.59456985 796.11367142 87.61760651 796.11381744 86.61103821 796.1139679 C83.42426224 796.11327858 80.23754683 796.10553275 77.05078125 796.09765625 C74.82447847 796.09578858 72.59817528 796.09436632 70.37187195 796.09336853 C64.54406579 796.08957085 58.71628499 796.07976435 52.88848877 796.06866455 C45.87904637 796.05658116 38.86959543 796.05203509 31.86014557 796.04621124 C21.24007947 796.03655088 10.62006889 796.01737514 0 796 C0 776.2 0 756.4 0 736 C5.50558594 735.93941406 11.01117187 735.87882812 16.68359375 735.81640625 C20.20638654 735.77583182 23.7291734 735.73501819 27.25195312 735.69335938 C32.82297502 735.62750123 38.39399684 735.56244901 43.96508789 735.50268555 C48.4650074 735.45435696 52.96486495 735.40200629 57.46470833 735.34705925 C59.16715988 735.32694069 60.86962818 735.30818455 62.57211113 735.29092598 C99.51071224 735.57903811 99.51071224 735.57903811 132 720 C154.48924713 696.78382771 150.29449338 657.09996894 150.30592227 627.35157132 C150.31047407 623.0320334 150.32852471 618.71255412 150.34571838 614.39305115 C150.39437207 601.59996067 150.4256945 588.80683648 150.44702148 576.01367188 C150.46366288 566.04203385 150.48677107 556.07050885 150.53004223 546.09894603 C150.54801212 541.82615073 150.56046546 537.55350843 150.55874443 533.28067207 C150.54744686 493.84233272 152.49993827 454.46177541 179 423 C179.68835937 422.17757813 180.37671875 421.35515625 181.0859375 420.5078125 C189.18588273 411.15734941 198.47271801 404.40443011 209 398 C208.32195312 397.59910156 207.64390625 397.19820312 206.9453125 396.78515625 C199.9123034 392.48937091 193.94648886 387.68707827 188 382 C187.00226563 381.11441406 187.00226563 381.11441406 185.984375 380.2109375 C164.91820901 360.77183311 155.50510696 331.62086945 152 304 C151.86849249 302.97943779 151.86849249 302.97943779 151.73432827 301.93825817 C150.84861752 294.20746643 150.84047893 286.49831542 150.82641602 278.72583008 C150.82009737 277.20504065 150.81333016 275.68425303 150.80615234 274.16346741 C150.79156332 270.90389706 150.77980551 267.64433345 150.77020454 264.38474464 C150.75461677 259.20663348 150.73066348 254.02858098 150.70530701 248.85050964 C150.63447798 234.1306024 150.57464782 219.41066112 150.52319336 204.69067383 C150.49465839 196.54858909 150.45915227 188.40656241 150.41653961 180.26453894 C150.39441267 175.97205579 150.3757892 171.67962516 150.36609077 167.3870945 C151.71779704 123.38341738 151.71779704 123.38341738 137 83 C136.278125 81.9275 135.55625 80.855 134.8125 79.75 C119.86848112 65.13807043 98.80739732 61.94110935 78.78662109 61.79467773 C77.92684662 61.78477814 77.06707214 61.77487854 76.1812439 61.76467896 C73.37866843 61.73344215 70.5760761 61.70845847 67.7734375 61.68359375 C65.814744 61.66299143 63.85605462 61.64199417 61.89736938 61.62062073 C56.77157959 61.56573828 51.64575195 61.51618151 46.51989746 61.46777344 C40.35393689 61.40841862 34.18804466 61.34237895 28.0221405 61.27747345 C18.68146915 61.17989031 9.34075158 61.09074314 0 61 C0 40.87 0 20.74 0 0 Z " fill="#F5F4F5" transform="translate(1604,667)"/>
<path d="M0 0 C1.85471559 0.00187243 3.70943168 0.00329242 5.56414795 0.00428772 C10.37090498 0.00804805 15.17763025 0.01782024 19.984375 0.0289917 C25.79177189 0.04117893 31.59917959 0.04563902 37.40658569 0.05144501 C46.161704 0.06103766 54.91675307 0.0802389 63.671875 0.09765625 C63.671875 20.22765625 63.671875 40.35765625 63.671875 61.09765625 C57.42121094 61.14664063 51.17054688 61.195625 44.73046875 61.24609375 C40.7428235 61.28152795 36.75519826 61.3175152 32.76757812 61.35546875 C26.45453944 61.41550341 20.14152839 61.4736196 13.82836914 61.51953125 C8.73189256 61.55672384 3.63557279 61.60317014 -1.46076775 61.65571976 C-3.39372919 61.67408503 -5.326724 61.68925693 -7.25973701 61.70100021 C-29.65811654 61.84179365 -53.04119118 62.7222097 -70.26171875 78.89453125 C-87.53411221 97.30971066 -86.4692967 128.61682766 -86.48583984 152.12890625 C-86.49052604 153.65880982 -86.49567245 155.18871204 -86.50123596 156.71861267 C-86.51239276 159.9797146 -86.52088566 163.24080807 -86.52735519 166.50192261 C-86.53819032 171.68498974 -86.55847388 176.86799513 -86.58047485 182.05102539 C-86.64188358 196.77861683 -86.69625207 211.50620256 -86.72949219 226.23388672 C-86.74798812 234.39399191 -86.77710249 242.55399097 -86.8174969 250.71401787 C-86.83830893 255.01038072 -86.85398677 259.30661148 -86.85630417 263.60302734 C-86.88663912 307.08219393 -90.58794207 348.49355806 -121.71923828 381.49755859 C-128.569497 388.31039557 -136.66953533 393.84666907 -145.328125 398.09765625 C-144.73386719 398.49855469 -144.13960938 398.89945313 -143.52734375 399.3125 C-115.00995478 418.87108248 -97.09643325 445.52823089 -90.60791016 479.57446289 C-88.22599027 492.60477207 -87.17850741 505.1268756 -87.15454102 518.38769531 C-87.14822244 519.91010726 -87.14145524 521.4325174 -87.13427734 522.95492554 C-87.11968875 526.21777208 -87.10793084 529.48061189 -87.09832954 532.74347687 C-87.08274443 537.92551399 -87.05879162 543.10749245 -87.03343201 548.28948975 C-86.96259434 563.02042911 -86.9027479 577.75140239 -86.85131836 592.48242188 C-86.8227968 600.63072304 -86.78729822 608.77896602 -86.74466461 616.9272058 C-86.72252432 621.22356951 -86.7039063 625.51988053 -86.69421577 629.81629181 C-88.51080938 677.11209996 -88.51080938 677.11209996 -69.515625 718.59765625 C-56.79681842 730.0226111 -40.80004116 733.73300084 -24.13720703 734.62866211 C-23.35132265 734.67132926 -22.56543827 734.71399641 -21.75573921 734.7579565 C-13.00908951 735.2044237 -4.26410184 735.32380255 4.4921875 735.4140625 C6.21524459 735.43471285 7.93829755 735.45571088 9.66134644 735.47703552 C14.1294208 735.53142434 18.59753426 735.58118923 23.06567383 735.62988281 C28.46258175 735.68970373 33.85942044 735.75545933 39.25627136 735.8201828 C47.39476255 735.91714051 55.53330443 736.00671169 63.671875 736.09765625 C63.671875 755.89765625 63.671875 775.69765625 63.671875 796.09765625 C39.71800276 796.21798268 39.71800276 796.21798268 29.34570312 796.24414062 C22.32455469 796.26193254 15.30352583 796.28275801 8.2824707 796.32397461 C2.60896959 796.35706424 -3.06440292 796.37461137 -8.73799324 796.38228798 C-10.88044313 796.38774404 -13.02288765 796.39839144 -15.1652813 796.41484642 C-53.36211398 796.6960027 -96.25594881 791.45970443 -125.328125 764.09765625 C-141.71503069 747.85576742 -150.8665596 727.77141312 -155.515625 705.41015625 C-155.74789795 704.31864258 -155.74789795 704.31864258 -155.98486328 703.20507812 C-159.98445507 682.64569659 -159.61356148 661.84072495 -159.60251999 640.99987793 C-159.59964567 635.24628833 -159.61418881 629.49281744 -159.63150024 623.73925781 C-159.67814361 607.39389793 -159.70245759 591.04854868 -159.70898438 574.703125 C-159.71275536 565.64062447 -159.73093776 556.57826124 -159.76407874 547.51581955 C-159.78083292 542.74228352 -159.79021429 537.96899697 -159.78113937 533.19543457 C-159.72501044 500.81643677 -160.5274436 469.65807657 -184.203125 444.72265625 C-196.58714527 432.92474992 -210.68713533 429.09005955 -227.41796875 428.78125 C-228.67534851 428.75327332 -228.67534851 428.75327332 -229.95812988 428.72473145 C-233.06053096 428.65693091 -236.16308888 428.59646666 -239.265625 428.53515625 C-249.6915625 428.31859375 -249.6915625 428.31859375 -260.328125 428.09765625 C-260.328125 408.29765625 -260.328125 388.49765625 -260.328125 368.09765625 C-237.140625 367.84765625 -237.140625 367.84765625 -229.90551758 367.79980469 C-211.32920553 367.56750646 -196.63829241 364.5877537 -182.55859375 351.5546875 C-164.85159695 332.04908157 -160.01262208 306.36226721 -160.05688477 280.87817383 C-160.05248698 279.18447115 -160.04718103 277.49077064 -160.04104614 275.79707336 C-160.02961995 272.17249548 -160.02409213 268.54797548 -160.02316475 264.9233799 C-160.02120512 259.16449937 -160.00304542 253.40573617 -159.98240662 247.64689636 C-159.93345898 233.33532958 -159.90247717 219.02373097 -159.88110352 204.71209717 C-159.86447294 193.59635608 -159.84134545 182.48071647 -159.79808277 171.36504287 C-159.78008178 166.59125227 -159.76766328 161.8175992 -159.76938057 157.04377174 C-159.78037383 113.64727458 -158.97652292 66.80167325 -126.328125 34.09765625 C-125.58175781 33.3396875 -124.83539063 32.58171875 -124.06640625 31.80078125 C-91.88159932 0.94592502 -41.87285976 -0.12723558 0 0 Z " fill="#F5F4F5" transform="translate(332.328125,666.90234375)"/>
</svg>
